<?xml version="1.0" encoding="utf-8"?>
<!-- Generator: Adobe Illustrator 19.0.0, SVG Export Plug-In . SVG Version: 6.00 Build 0)  -->
<svg version="1.1" id="Isolation_Mode" xmlns="http://www.w3.org/2000/svg" xmlns:xlink="http://www.w3.org/1999/xlink" x="0px"
	 y="0px" viewBox="0 0 373.4 90.2" style="enable-background:new 0 0 373.4 90.2;" xml:space="preserve">
<style type="text/css">
	.st0{fill:#FFFFFF;}
	.st1{fill:#E0934C;}
</style>
<g>
	<g>
		<path class="st0" d="M52.2,10.6c3.1-0.5,7.1-1,12.2-1c6.3,0,10.9,1.5,13.8,4.1c2.7,2.3,4.3,5.9,4.3,10.3c0,4.5-1.3,8-3.8,10.5
			c-3.4,3.6-8.9,5.4-15.1,5.4c-1.9,0-3.7-0.1-5.1-0.4v19.8h-6.4V10.6z M58.5,34.4c1.4,0.4,3.1,0.5,5.3,0.5c7.7,0,12.4-3.7,12.4-10.5
			c0-6.5-4.6-9.7-11.6-9.7c-2.8,0-4.9,0.2-6,0.5V34.4z"/>
		<path class="st0" d="M91.1,10.7c3.2-0.7,7.8-1,12.2-1c6.8,0,11.2,1.2,14.3,4c2.5,2.2,3.9,5.6,3.9,9.4c0,6.5-4.1,10.8-9.3,12.6v0.2
			c3.8,1.3,6.1,4.8,7.2,10c1.6,6.9,2.8,11.6,3.8,13.5h-6.6c-0.8-1.4-1.9-5.6-3.3-11.8c-1.5-6.8-4.1-9.4-9.9-9.6h-6v21.4h-6.4V10.7z
			 M97.5,33.1h6.5c6.8,0,11.1-3.7,11.1-9.4c0-6.4-4.6-9.1-11.3-9.2c-3.1,0-5.3,0.3-6.3,0.6V33.1z"/>
		<path class="st0" d="M156,36.2h-19.2V54h21.4v5.3h-27.7V10h26.6v5.3h-20.3v15.6H156V36.2z"/>
		<path class="st0" d="M165.6,51.6c2.9,1.8,7,3.2,11.4,3.2c6.5,0,10.3-3.4,10.3-8.4c0-4.6-2.6-7.2-9.3-9.8c-8-2.9-13-7-13-14
			c0-7.7,6.4-13.4,16-13.4c5,0,8.7,1.2,10.9,2.4l-1.8,5.2c-1.6-0.9-4.9-2.3-9.4-2.3c-6.7,0-9.3,4-9.3,7.4c0,4.6,3,6.9,9.8,9.5
			c8.3,3.2,12.6,7.2,12.6,14.5c0,7.6-5.6,14.2-17.3,14.2c-4.8,0-10-1.4-12.6-3.1L165.6,51.6z"/>
		<path class="st0" d="M210.4,15.4h-15V10h36.5v5.4h-15.1v43.9h-6.4V15.4z"/>
		<path class="st0" d="M243.8,10v49.3h-6.4V10H243.8z"/>
		<path class="st0" d="M292.4,57.1c-2.9,1-8.5,2.7-15.1,2.7c-7.5,0-13.6-1.9-18.4-6.5c-4.2-4.1-6.9-10.7-6.9-18.4
			c0.1-14.7,10.2-25.5,26.7-25.5c5.7,0,10.2,1.2,12.3,2.3l-1.5,5.2c-2.6-1.2-5.9-2.1-10.9-2.1c-12,0-19.8,7.5-19.8,19.8
			c0,12.5,7.5,19.9,19,19.9c4.2,0,7-0.6,8.5-1.3V38.6h-10v-5.1h16.2V57.1z"/>
		<path class="st0" d="M327.7,36.2h-19.2V54h21.4v5.3h-27.7V10h26.6v5.3h-20.3v15.6h19.2V36.2z"/>
	</g>
	<g>
		<path class="st0" d="M113.9,69.5c0.7-0.2,1.9-0.3,3.1-0.3c1.7,0,2.7,0.3,3.6,0.9c0.7,0.5,1.1,1.3,1.1,2.3c0,1.2-0.8,2.3-2.2,2.8v0
			c1.2,0.3,2.7,1.3,2.7,3.2c0,1.1-0.4,2-1.1,2.6c-0.9,0.8-2.4,1.2-4.5,1.2c-1.2,0-2-0.1-2.6-0.2V69.5z M115.6,74.8h1.5
			c1.8,0,2.8-0.9,2.8-2.2c0-1.5-1.2-2.1-2.8-2.1c-0.8,0-1.2,0.1-1.5,0.1V74.8z M115.6,81c0.3,0.1,0.8,0.1,1.4,0.1
			c1.7,0,3.3-0.6,3.3-2.5c0-1.8-1.5-2.5-3.3-2.5h-1.4V81z"/>
		<path class="st0" d="M126,69.4V77c0,2.9,1.3,4.1,3,4.1c1.9,0,3.1-1.3,3.1-4.1v-7.7h1.7v7.5c0,4-2.1,5.6-4.9,5.6
			c-2.6,0-4.6-1.5-4.6-5.5v-7.6H126z"/>
		<path class="st0" d="M138.4,69.4v12.9h-1.7V69.4H138.4z"/>
		<path class="st0" d="M141.3,69.4h1.7v11.5h5.5v1.4h-7.2V69.4z"/>
		<path class="st0" d="M150.4,69.5c1-0.2,2.2-0.3,3.6-0.3c2.4,0,4.1,0.6,5.2,1.6c1.2,1.1,1.8,2.6,1.8,4.6c0,2.1-0.7,3.8-1.9,5
			c-1.2,1.2-3.2,1.9-5.7,1.9c-1.2,0-2.2-0.1-3-0.2V69.5z M152.1,81c0.4,0.1,1,0.1,1.7,0.1c3.6,0,5.5-2,5.5-5.5c0-3.1-1.7-5-5.2-5
			c-0.9,0-1.5,0.1-2,0.2V81z"/>
		<path class="st0" d="M164.9,69.4v12.9h-1.7V69.4H164.9z"/>
		<path class="st0" d="M167.8,82.3V69.4h1.8l4.1,6.5c1,1.5,1.7,2.9,2.3,4.2l0,0c-0.2-1.7-0.2-3.3-0.2-5.3v-5.4h1.6v12.9h-1.7
			l-4.1-6.6c-0.9-1.4-1.8-2.9-2.4-4.3l-0.1,0c0.1,1.6,0.1,3.2,0.1,5.3v5.5H167.8z"/>
		<path class="st0" d="M190.2,81.7c-0.7,0.3-2.2,0.7-4,0.7c-2,0-3.6-0.5-4.8-1.7c-1.1-1.1-1.8-2.8-1.8-4.8c0-3.9,2.7-6.7,7-6.7
			c1.5,0,2.7,0.3,3.2,0.6l-0.4,1.4c-0.7-0.3-1.6-0.6-2.9-0.6c-3.1,0-5.2,2-5.2,5.2c0,3.3,2,5.2,5,5.2c1.1,0,1.8-0.2,2.2-0.3v-3.9
			H186v-1.3h4.3V81.7z"/>
		<path class="st0" d="M206.7,81.7c-0.7,0.3-2.2,0.7-4,0.7c-2,0-3.6-0.5-4.8-1.7c-1.1-1.1-1.8-2.8-1.8-4.8c0-3.9,2.7-6.7,7-6.7
			c1.5,0,2.7,0.3,3.2,0.6l-0.4,1.4c-0.7-0.3-1.6-0.6-2.9-0.6c-3.1,0-5.2,2-5.2,5.2c0,3.3,2,5.2,5,5.2c1.1,0,1.8-0.2,2.2-0.3v-3.9
			h-2.6v-1.3h4.3V81.7z"/>
		<path class="st0" d="M209.3,69.5c0.8-0.2,2.1-0.3,3.2-0.3c1.8,0,2.9,0.3,3.7,1.1c0.7,0.6,1,1.5,1,2.5c0,1.7-1.1,2.8-2.4,3.3v0.1
			c1,0.3,1.6,1.3,1.9,2.6c0.4,1.8,0.7,3.1,1,3.6H216c-0.2-0.4-0.5-1.5-0.9-3.1c-0.4-1.8-1.1-2.5-2.6-2.5h-1.6v5.6h-1.7V69.5z
			 M210.9,75.4h1.7c1.8,0,2.9-1,2.9-2.5c0-1.7-1.2-2.4-3-2.4c-0.8,0-1.4,0.1-1.7,0.2V75.4z"/>
		<path class="st0" d="M230.7,75.7c0,4.5-2.7,6.8-6,6.8c-3.4,0-5.8-2.6-5.8-6.6c0-4.1,2.6-6.8,6-6.8
			C228.4,69.2,230.7,71.9,230.7,75.7z M220.7,75.9c0,2.8,1.5,5.2,4.1,5.2c2.6,0,4.1-2.4,4.1-5.4c0-2.6-1.3-5.3-4.1-5.3
			C222,70.5,220.7,73.1,220.7,75.9z"/>
		<path class="st0" d="M234.5,69.4V77c0,2.9,1.3,4.1,3,4.1c1.9,0,3.1-1.3,3.1-4.1v-7.7h1.7v7.5c0,4-2.1,5.6-4.9,5.6
			c-2.6,0-4.6-1.5-4.6-5.5v-7.6H234.5z"/>
		<path class="st0" d="M245.3,69.5c0.8-0.1,1.9-0.2,3.2-0.2c1.7,0,2.9,0.4,3.6,1.1c0.7,0.6,1.1,1.6,1.1,2.7c0,1.2-0.3,2.1-1,2.8
			c-0.9,0.9-2.3,1.4-4,1.4c-0.5,0-1,0-1.3-0.1v5.2h-1.7V69.5z M247,75.8c0.4,0.1,0.8,0.1,1.4,0.1c2,0,3.2-1,3.2-2.8
			c0-1.7-1.2-2.5-3.1-2.5c-0.7,0-1.3,0.1-1.6,0.1V75.8z"/>
	</g>
	<polygon class="st1" points="102.6,82.4 56.1,82.4 9.6,82.4 9.6,75.8 9.6,69.2 56.1,69.2 102.6,69.2 102.6,75.8 	"/>
	<polygon class="st1" points="281.1,82.4 325.5,82.4 369.9,82.4 369.9,75.8 369.9,69.2 325.5,69.2 281.1,69.2 281.1,75.8 	"/>
</g>
</svg>
