<?xml version="1.0" encoding="utf-8"?>
<!-- Generator: Adobe Illustrator 19.0.0, SVG Export Plug-In . SVG Version: 6.00 Build 0)  -->
<svg version="1.1" id="Слой_1" xmlns="http://www.w3.org/2000/svg" xmlns:xlink="http://www.w3.org/1999/xlink" x="0px" y="0px"
	 viewBox="-270 362.9 69.7 68.1" style="enable-background:new -270 362.9 69.7 68.1;" xml:space="preserve">
<style type="text/css">
	.st0{fill:#FFFFFF;stroke:#FFFFFF;stroke-miterlimit:10;}
</style>
<g>
	<g>
		<path class="st0" d="M-210.2,413.7c-0.5,0-1-0.2-1.4-0.6s-0.6-0.9-0.6-1.4s0.2-1,0.6-1.4c0.8-0.7,2.1-0.7,2.8,0
			c0.4,0.4,0.6,0.9,0.6,1.4s-0.2,1-0.6,1.4S-209.7,413.7-210.2,413.7z"/>
	</g>
	<g>
		<path class="st0" d="M-202.3,421.7c-0.5,0-1-0.2-1.4-0.6s-0.6-0.9-0.6-1.4s0.2-1,0.6-1.4c0.8-0.7,2.1-0.7,2.8,0
			c0.4,0.4,0.6,0.9,0.6,1.4s-0.2,1-0.6,1.4S-201.8,421.7-202.3,421.7z"/>
	</g>
	<g>
		<path class="st0" d="M-206.3,417.7c-0.5,0-1-0.2-1.4-0.6s-0.6-0.9-0.6-1.4s0.2-1,0.6-1.4c0.8-0.7,2.1-0.7,2.8,0
			c0.4,0.4,0.6,0.9,0.6,1.4s-0.2,1-0.6,1.4S-205.8,417.7-206.3,417.7z"/>
	</g>
	<g>
		<path class="st0" d="M-246.1,410.8c-13.2,0-24-10.7-24-24s10.7-24,24-24c13.2,0,24,10.7,24,24S-232.9,410.8-246.1,410.8z
			 M-246.1,366.9c-11,0-20,9-20,20s9,20,20,20c11,0,20-9,20-20C-226.2,375.9-235.1,366.9-246.1,366.9z"/>
	</g>
	<g>
		<path class="st0" d="M-214.5,409.5c-0.5,0-1-0.2-1.4-0.5l-11.8-11.1c-0.8-0.8-0.8-2-0.1-2.8c0.8-0.8,2-0.8,2.8-0.1l11.8,11
			c0.8,0.8,0.8,2,0.1,2.8C-213.5,409.3-214,409.5-214.5,409.5z"/>
	</g>
	<g>
		<path class="st0" d="M-210.9,431.1c-0.5,0-1-0.2-1.4-0.5l-24.7-22.8c-0.8-0.7-0.9-2-0.1-2.8c0.7-0.8,2-0.9,2.8-0.1l23.2,21.5
			l2.8-3c0.8-0.8,2-0.8,2.8-0.1c0.8,0.8,0.8,2,0.1,2.8l-4.2,4.5C-209.8,430.8-210.4,431.1-210.9,431.1z"/>
	</g>
</g>
</svg>
