<?xml version="1.0" encoding="utf-8"?>
<!-- Generator: Adobe Illustrator 19.0.0, SVG Export Plug-In . SVG Version: 6.00 Build 0)  -->
<svg version="1.1" id="Isolation_Mode" xmlns="http://www.w3.org/2000/svg" xmlns:xlink="http://www.w3.org/1999/xlink" x="0px"
	 y="0px" viewBox="0 0 368.9 98.9" style="enable-background:new 0 0 368.9 98.9;" xml:space="preserve">
<style type="text/css">
	.st0{fill:#FFFFFF;}
	.st1{fill:#D35D3C;}
</style>
<g>
	<g>
		<path class="st0" d="M25.6,64.2V15.4h22.8c10.6,0,16.4,7.2,16.4,15.7c0,8.5-5.9,15.7-16.4,15.7H35.9v17.4H25.6z M54.2,31.2
			c0-4.1-3.1-6.6-7.2-6.6h-11v13.1h11C51,37.7,54.2,35.2,54.2,31.2z"/>
		<path class="st0" d="M98.9,64.2l-9.6-17.3h-7.6v17.3H71.3V15.4h22.8c10.2,0,16.5,6.7,16.5,15.7c0,8.6-5.5,13.2-10.8,14.5l11,18.6
			H98.9z M99.9,31.1c0-4-3.1-6.5-7.2-6.5h-11v13.2h11C96.7,37.8,99.9,35.3,99.9,31.1z"/>
		<path class="st0" d="M118.3,64.2V15.4h34.5v9.1h-24.1v10.2h23.6V44h-23.6v11.1h24.1v9.1H118.3z"/>
		<path class="st0" d="M157.6,57.4l5.7-8.1c3.4,3.6,8.8,6.7,15.5,6.7c5.8,0,8.5-2.6,8.5-5.4c0-8.5-28.1-2.6-28.1-20.9
			c0-8.1,7-14.9,18.5-14.9c7.8,0,14.2,2.3,19,6.8l-5.8,7.8c-4-3.7-9.2-5.3-14.2-5.3c-4.4,0-6.9,1.9-6.9,4.8c0,7.7,28,2.5,28,20.7
			c0,8.9-6.4,15.7-19.5,15.7C168.9,65.1,162.2,62,157.6,57.4z"/>
		<path class="st0" d="M214.7,64.2V24.6h-14.3v-9.1h38.9v9.1h-14.2v39.7H214.7z"/>
		<path class="st0" d="M246,64.2V15.4h10.4v48.8H246z"/>
		<path class="st0" d="M263.7,39.9c0-15.4,11.7-25.2,26-25.2c10.1,0,16.5,5.1,20.1,10.9l-8.6,4.7c-2.3-3.4-6.4-6.4-11.6-6.4
			c-8.9,0-15.4,6.8-15.4,16s6.4,16,15.4,16c4.3,0,8.3-1.9,10.3-3.7v-5.9h-12.9v-9.1h23.3V56c-5,5.6-11.9,9.1-20.7,9.1
			C275.4,65.1,263.7,55.2,263.7,39.9z"/>
		<path class="st0" d="M318.7,64.2V15.4h34.5v9.1h-24.1v10.2h23.6V44h-23.6v11.1h24.1v9.1H318.7z"/>
	</g>
	<g>
		<path class="st0" d="M112.8,87.2V74.4h6.7c2.4,0,3.7,1.6,3.7,3.3c0,1.6-1,2.7-2.2,2.9c1.4,0.2,2.5,1.5,2.5,3.1
			c0,1.9-1.3,3.5-3.7,3.5H112.8z M120.4,78.2c0-0.8-0.6-1.3-1.5-1.3h-3.4v2.7h3.4C119.8,79.5,120.4,79,120.4,78.2z M120.7,83.4
			c0-0.8-0.6-1.5-1.6-1.5h-3.5v2.9h3.5C120,84.8,120.7,84.3,120.7,83.4z"/>
		<path class="st0" d="M125.5,82.1v-7.7h2.8V82c0,1.8,1,3,3,3s3-1.2,3-3v-7.6h2.8v7.7c0,3.2-1.9,5.4-5.8,5.4
			C127.4,87.4,125.5,85.3,125.5,82.1z"/>
		<path class="st0" d="M139.6,87.2V74.4h2.7v12.8H139.6z"/>
		<path class="st0" d="M144.7,87.2V74.4h2.7v10.4h5.4v2.4H144.7z"/>
		<path class="st0" d="M154.7,87.2V74.4h5c4,0,6.8,2.6,6.8,6.4c0,3.9-2.8,6.4-6.8,6.4H154.7z M163.8,80.8c0-2.2-1.4-4-4-4h-2.3v8
			h2.3C162.3,84.8,163.8,83,163.8,80.8z"/>
		<path class="st0" d="M168.5,87.2V74.4h2.7v12.8H168.5z"/>
		<path class="st0" d="M182.6,87.2l-6.1-8.3v8.3h-2.7V74.4h2.8l5.9,8v-8h2.7v12.8H182.6z"/>
		<path class="st0" d="M187.1,80.8c0-4,3.1-6.6,6.8-6.6c2.6,0,4.3,1.3,5.3,2.9l-2.2,1.2c-0.6-0.9-1.7-1.7-3-1.7c-2.3,0-4,1.8-4,4.2
			c0,2.4,1.7,4.2,4,4.2c1.1,0,2.2-0.5,2.7-1v-1.5h-3.4v-2.4h6.1v4.9c-1.3,1.5-3.1,2.4-5.4,2.4C190.2,87.4,187.1,84.9,187.1,80.8z"/>
		<path class="st0" d="M205.9,80.8c0-4,3.1-6.6,6.8-6.6c2.6,0,4.3,1.3,5.3,2.9l-2.2,1.2c-0.6-0.9-1.7-1.7-3-1.7c-2.3,0-4,1.8-4,4.2
			c0,2.4,1.7,4.2,4,4.2c1.1,0,2.2-0.5,2.7-1v-1.5H212v-2.4h6.1v4.9c-1.3,1.5-3.1,2.4-5.4,2.4C209,87.4,205.9,84.9,205.9,80.8z"/>
		<path class="st0" d="M227.5,87.2l-2.5-4.5h-2v4.5h-2.7V74.4h6c2.7,0,4.3,1.7,4.3,4.1c0,2.2-1.4,3.5-2.8,3.8l2.9,4.9H227.5z
			 M227.8,78.5c0-1.1-0.8-1.7-1.9-1.7H223v3.5h2.9C227,80.3,227.8,79.6,227.8,78.5z"/>
		<path class="st0" d="M232,80.8c0-3.9,2.8-6.6,6.7-6.6c3.9,0,6.7,2.8,6.7,6.6c0,3.9-2.8,6.6-6.7,6.6C234.9,87.4,232,84.7,232,80.8z
			 M242.6,80.8c0-2.4-1.5-4.2-3.9-4.2c-2.4,0-3.9,1.8-3.9,4.2c0,2.4,1.5,4.2,3.9,4.2C241.1,85,242.6,83.2,242.6,80.8z"/>
		<path class="st0" d="M247.3,82.1v-7.7h2.8V82c0,1.8,1,3,3,3s3-1.2,3-3v-7.6h2.8v7.7c0,3.2-1.9,5.4-5.8,5.4
			C249.2,87.4,247.3,85.3,247.3,82.1z"/>
		<path class="st0" d="M261.4,87.2V74.4h6c2.8,0,4.3,1.9,4.3,4.1c0,2.2-1.5,4.1-4.3,4.1h-3.3v4.6H261.4z M268.9,78.5
			c0-1.1-0.8-1.7-1.9-1.7h-2.9v3.4h2.9C268.1,80.3,268.9,79.6,268.9,78.5z"/>
	</g>
	<rect x="8.6" y="74.1" class="st1" width="93" height="13.2"/>
	<rect x="280.1" y="74.1" class="st1" width="88.8" height="13.2"/>
</g>
</svg>
